<svg width="32" height="32" viewBox="0 0 32 32" fill="none" xmlns="http://www.w3.org/2000/svg">
<path fill-rule="evenodd" clip-rule="evenodd" d="M4.61961 27.381C6.57224 29.3337 9.71493 29.3337 16.0003 29.3337C22.2857 29.3337 25.4284 29.3337 27.381 27.381C29.3337 25.4284 29.3337 22.2857 29.3337 16.0003C29.3337 9.71493 29.3337 6.57224 27.381 4.61961C25.4284 2.66699 22.2857 2.66699 16.0003 2.66699C9.71493 2.66699 6.57224 2.66699 4.61961 4.61961C2.66699 6.57224 2.66699 9.71493 2.66699 16.0003C2.66699 22.2857 2.66699 25.4284 4.61961 27.381ZM25.0003 21.3337C25.0003 21.8859 24.5526 22.3337 24.0003 22.3337H8.00033C7.44804 22.3337 7.00033 21.8859 7.00033 21.3337C7.00033 20.7814 7.44804 20.3337 8.00033 20.3337H24.0003C24.5526 20.3337 25.0003 20.7814 25.0003 21.3337ZM24.0003 17.0003C24.5526 17.0003 25.0003 16.5526 25.0003 16.0003C25.0003 15.448 24.5526 15.0003 24.0003 15.0003H8.00033C7.44804 15.0003 7.00033 15.448 7.00033 16.0003C7.00033 16.5526 7.44804 17.0003 8.00033 17.0003H24.0003ZM25.0003 10.667C25.0003 11.2193 24.5526 11.667 24.0003 11.667H8.00033C7.44804 11.667 7.00033 11.2193 7.00033 10.667C7.00033 10.1147 7.44804 9.66699 8.00033 9.66699H24.0003C24.5526 9.66699 25.0003 10.1147 25.0003 10.667Z" fill="#010C2C"/>
</svg>
