<svg width="32" height="32" viewBox="0 0 32 32" fill="none" xmlns="http://www.w3.org/2000/svg">
<path opacity="0.5" d="M29.3332 16.0001C29.3332 23.3639 23.3636 29.3334 15.9998 29.3334C8.63604 29.3334 2.6665 23.3639 2.6665 16.0001C2.6665 8.63628 8.63604 2.66675 15.9998 2.66675C23.3636 2.66675 29.3332 8.63628 29.3332 16.0001Z" fill="white"/>
<path d="M11.9594 11.9596C12.3499 11.5691 12.9831 11.5691 13.3736 11.9596L15.9999 14.5859L18.6261 11.9597C19.0166 11.5691 19.6498 11.5691 20.0403 11.9597C20.4308 12.3502 20.4308 12.9834 20.0403 13.3739L17.4141 16.0001L20.0402 18.6263C20.4308 19.0168 20.4308 19.65 20.0402 20.0405C19.6497 20.431 19.0166 20.431 18.626 20.0405L15.9999 17.4143L13.3736 20.0405C12.9831 20.431 12.35 20.431 11.9594 20.0405C11.5689 19.65 11.5689 19.0168 11.9594 18.6263L14.5856 16.0001L11.9594 13.3739C11.5689 12.9833 11.5689 12.3502 11.9594 11.9596Z" fill="white"/>
</svg>
