<svg width="38" height="39" viewBox="0 0 38 39" fill="none" xmlns="http://www.w3.org/2000/svg">
<path opacity="0.5" fill-rule="evenodd" clip-rule="evenodd" d="M15.8334 35.7497H22.1667C28.1379 35.7497 31.1234 35.7497 32.9784 33.8947C34.8334 32.0397 34.8334 29.0541 34.8334 23.083V22.3909C34.8334 21.009 34.8334 19.9708 34.766 19.1248H28.5001L28.3499 19.1249C26.6128 19.125 25.0777 19.1251 23.8403 18.9587C22.499 18.7784 21.1579 18.3644 20.0634 17.2699C18.9689 16.1753 18.5548 14.8343 18.3745 13.493C18.2081 12.2556 18.2083 10.7205 18.2084 8.98337L18.223 4.49557C18.2235 4.36504 18.2346 4.23595 18.2559 4.10939C17.609 4.08301 16.8401 4.08301 15.8806 4.08301C9.87801 4.08301 6.87673 4.08301 5.02174 5.938C3.16675 7.79299 3.16675 10.7786 3.16675 16.7497V23.083C3.16675 29.0541 3.16675 32.0397 5.02174 33.8947C6.87673 35.7497 9.86229 35.7497 15.8334 35.7497Z" fill="white"/>
<path d="M14.2706 31.0743C13.8138 31.5026 13.103 31.5026 12.6462 31.0743L9.47957 28.1056C9.00111 27.657 8.97687 26.9055 9.42543 26.4271C9.87398 25.9486 10.6255 25.9244 11.1039 26.3729L12.2709 27.467V22.2914C12.2709 21.6355 12.8026 21.1039 13.4584 21.1039C14.1143 21.1039 14.6459 21.6355 14.6459 22.2914L14.6459 27.467L15.8129 26.3729C16.2914 25.9244 17.0429 25.9486 17.4914 26.4271C17.94 26.9055 17.9157 27.657 17.4373 28.1056L14.2706 31.0743Z" fill="white"/>
<path d="M18.2229 4.49483L18.2083 8.98263C18.2081 10.7197 18.208 12.2549 18.3744 13.4923C18.5547 14.8335 18.9687 16.1746 20.0633 17.2691C21.1578 18.3636 22.4988 18.7777 23.8401 18.958C25.0775 19.1244 26.6126 19.1242 28.3497 19.1241L34.7658 19.1241C34.7855 19.3704 34.7994 19.633 34.8092 19.9156H34.8333C34.8333 19.4921 34.8333 19.2803 34.8175 19.031C34.728 17.6146 34.1393 15.9916 33.2998 14.8473C33.152 14.6459 33.051 14.525 32.8489 14.2831C31.594 12.7812 29.9424 10.9102 28.4999 9.62393C27.2161 8.47905 25.4578 7.2265 23.9243 6.20229C22.6068 5.32235 21.9481 4.88238 21.0449 4.55538C20.8054 4.46868 20.4895 4.37293 20.2422 4.31205C19.6342 4.16239 19.0424 4.11033 18.2083 4.09229L18.2229 4.49483Z" fill="white"/>
</svg>
