<svg width="33" height="51" viewBox="0 0 33 51" fill="none" xmlns="http://www.w3.org/2000/svg">
<path d="M32.6038 4.72186L31.3018 3.64186C30.8758 5.06986 30.3478 6.35386 29.6098 7.36186C29.2498 6.58786 28.7458 5.82586 28.1098 5.10586C28.0078 3.84586 27.7618 2.58586 27.3358 1.36786L26.0218 0.755859C26.0038 1.50586 25.8958 2.28586 25.7098 3.01186C24.5398 2.18386 23.2138 1.57186 21.7438 1.15186L20.4238 2.09386C23.2258 3.45586 26.0038 7.01986 26.0578 10.7999C25.3918 11.2679 24.6658 11.7179 23.8798 12.1559C23.5618 9.43786 22.3498 6.29986 20.6218 4.87786L19.5538 5.51986C19.9918 6.57586 20.2918 7.66786 20.3938 8.79586L18.6778 8.48386C18.7018 10.1099 19.1098 11.6579 20.0818 13.1099C19.9858 13.4419 19.8738 13.7559 19.7458 14.0519C19.0438 14.3219 18.3058 14.5859 17.5498 14.8319C16.4698 13.2239 16.1518 10.1039 16.5898 7.39186L15.2278 7.13986C13.6258 9.39586 12.9598 12.1019 12.8098 15.4499C12.3778 15.4499 11.9518 15.4199 11.5438 15.3599C10.6978 12.8939 10.4698 9.72586 10.8238 7.44586L9.46781 7.18186C8.18981 8.97586 7.50581 11.3759 7.18781 14.1539C6.42581 13.6199 5.72381 12.9419 5.09381 12.1259C5.38781 8.34586 7.99181 4.25386 11.0158 2.22586L10.0078 1.31386C8.63981 1.71586 7.48781 2.32786 6.44981 3.06586C6.35981 2.38186 6.32981 1.51786 6.40781 0.755859L4.73981 1.68586C4.39181 2.71186 3.92381 4.58386 3.79181 5.74186C3.42581 6.22186 3.07781 6.74386 2.75381 7.29586C2.46581 6.37786 2.26781 4.99186 2.23781 3.71386L0.935807 4.96786C-0.318193 9.00586 0.689807 14.0099 3.17981 16.7879C2.66981 20.5439 3.56381 23.5679 5.36381 25.4819C4.52381 26.9339 3.82181 28.5839 3.22181 30.3959L4.90781 35.5799H7.05581C7.18781 42.1199 10.6858 47.1119 15.9598 50.2439C18.0778 42.0539 22.4218 36.7679 27.8638 32.8019L25.3918 25.2359C27.0778 21.9659 27.7498 18.3059 27.7318 15.1679C30.3898 12.8579 32.6038 9.45586 32.6038 4.72186Z" fill="#C1C6C8"/>
<path d="M31.9968 5.0708L31.6068 4.7408C31.1868 6.1928 30.4308 7.5128 29.3868 8.7128C29.0928 7.5548 28.4148 6.4088 27.4608 5.3828C27.3948 4.2608 27.1368 2.7968 26.8488 1.8728L26.5188 1.7168C26.5128 2.2268 26.3808 3.2588 26.1288 4.1468C24.9108 3.1748 23.4588 2.3768 21.9048 1.8488L21.5868 2.0768C24.4368 3.6908 26.9508 7.7948 26.7048 11.1488C25.6848 11.8928 24.5388 12.5828 23.2968 13.2128C23.2248 10.6688 22.0608 7.0868 20.5728 5.6828L20.3508 5.8148C20.8788 7.0568 21.2088 8.9648 21.1068 10.8848C20.4528 10.3388 20.0448 9.7928 19.8048 9.3608L19.3368 9.2768C19.4868 10.5068 20.0028 11.9588 20.8008 12.9908C20.6628 13.5428 20.4828 14.0768 20.2428 14.5688C19.3008 14.9408 18.3168 15.2888 17.3028 15.6068C15.8448 13.8968 15.5448 10.5128 15.8568 7.9268L15.5328 7.8668C13.9788 10.1528 13.4868 13.3868 13.4568 16.0988C12.6168 16.1468 11.8068 16.0928 11.0388 15.9428C10.3368 13.9268 9.78483 11.0528 10.1028 7.9808L9.77883 7.9208C8.47683 9.9248 7.91883 12.7028 7.75683 15.2768C6.40083 14.5568 5.29083 13.5128 4.41483 12.3308C4.68483 8.2988 7.25283 4.2488 10.0668 2.2628L9.77283 1.9988C8.35683 2.5268 7.07283 3.3068 5.92083 4.3628C5.76483 3.4148 5.74083 2.3468 5.79483 1.8428L5.26083 2.1488C4.90683 3.3428 4.55283 4.8308 4.42683 5.9948C3.75483 6.8588 3.14283 7.8488 2.59683 8.9768C2.02083 7.4648 1.75083 6.0248 1.75683 4.9988L1.40883 5.4008C0.742831 8.6648 0.0888306 15.8828 8.05083 19.1648C7.94283 19.3568 7.82883 19.5668 7.73883 19.7468C6.28083 19.2128 4.94283 18.4088 3.73083 17.2988C3.37083 20.3108 4.16883 23.5088 6.13683 25.3988C5.16483 26.9408 4.45083 28.5068 3.86883 30.3908L5.35083 34.9688H7.65483C7.66083 41.2568 10.6548 46.1648 15.5988 49.2728C17.5128 42.0428 21.6048 36.7628 27.1488 32.5868L24.7188 25.1588C26.4228 21.8048 27.0648 18.7208 27.0768 15.7928C25.6908 16.8128 24.1848 17.7008 22.5348 18.4328L22.3248 17.7908C29.9448 14.2268 31.8408 9.3008 31.9968 5.0708Z" fill="#002855"/>
<path fill-rule="evenodd" clip-rule="evenodd" d="M23.7778 26.2259L25.7158 32.1479C21.0238 35.8319 16.9438 40.8059 14.9338 47.2739C11.0998 44.5199 9.04781 40.2179 8.89181 34.9679H10.6258C12.3418 32.2859 15.0358 30.3479 17.8618 29.7299C18.8518 28.1519 19.4278 26.6759 18.5818 25.0439C18.4258 26.5019 17.9218 27.7259 16.9738 28.6439C14.0458 29.5439 11.7958 31.2539 9.87581 33.7379H6.25181L5.64581 31.8779L7.12781 32.3279L9.16181 31.5479L8.78381 30.3899H5.16581C5.95781 27.9839 7.15181 25.7819 8.70581 23.9639H7.48181C7.87781 22.4459 8.54981 20.6399 9.25781 19.5419C9.65981 19.6379 10.0558 19.7159 10.4398 19.7759L12.1258 17.6699L12.8518 19.9439C15.0658 19.9859 17.8198 19.3499 19.5598 18.7259L18.7918 21.0959C21.1318 20.4299 23.5738 19.4759 25.6498 18.1739C25.4698 20.2499 24.5518 22.8839 23.6878 24.3179H20.2258L23.7778 26.2259ZM16.9258 22.1579C15.3418 23.3819 13.2958 23.9639 10.6678 23.9639L11.6938 24.9839L10.5898 26.9459L12.6058 25.4939C14.9158 25.4939 16.3018 23.9639 16.9258 22.1579ZM23.3758 21.1439C22.4158 21.7139 21.4138 22.1459 20.1118 22.5839L20.0038 22.8839H22.6558C22.9198 22.4399 23.2438 21.7139 23.3758 21.1439ZM4.81781 19.5779C5.51981 20.0879 6.46781 20.5319 7.30181 20.8019C6.92981 21.5639 6.55181 22.6619 6.34781 23.9639C5.30381 23.0039 4.75181 21.1499 4.81781 19.5779Z" fill="#E4002B"/>
<path d="M14.7847 37.7228C14.9947 36.7268 15.3427 35.8087 15.8047 34.9688H8.88672C8.91072 35.9047 9.00672 36.8108 9.15672 37.6628L10.3267 37.1887C10.6987 39.6727 11.7067 41.9348 13.3207 43.9807C12.7867 41.7248 12.6607 39.4627 12.9427 37.1887L14.7847 37.7228Z" fill="white"/>
<path d="M5.64602 31.8769L6.25202 33.7369H9.87602C10.47 32.9689 11.01 32.3749 11.676 31.7389L10.86 29.2249H8.40602L7.86002 27.5449L5.58602 29.2249C5.41802 29.6449 5.31002 29.9509 5.16602 30.3889H8.78402L9.16202 31.5469L7.12802 32.3269L5.64602 31.8769Z" fill="white"/>
<path d="M7.48242 23.9636H8.70642L7.75242 23.0156C7.66242 23.3156 7.56042 23.6396 7.48242 23.9636Z" fill="white"/>
<path d="M12.9538 23.1182L12.7318 22.4402L10.6738 23.9642C13.2958 23.9642 15.3418 23.3822 16.9318 22.1582L12.9538 23.1182Z" fill="white"/>
<path d="M28.7036 10.8778C28.4816 8.71177 27.6836 6.99577 26.2976 5.75977C27.1316 7.28977 28.0556 9.13777 27.8456 11.6818C26.3336 12.9838 24.4436 14.1538 22.3916 15.1018C22.5116 13.6918 22.4216 12.1798 22.0976 10.8538C22.0556 12.4078 21.7496 14.2258 21.0776 15.6718C19.5176 16.3018 17.8976 16.7998 16.2956 17.1478C15.3956 15.9778 15.1076 14.1178 14.8556 12.3658C14.5736 13.9858 14.5676 16.5418 15.2456 18.4378C21.2636 17.3998 28.1396 14.0938 29.9216 9.46177C29.5676 9.94777 29.1596 10.4218 28.7036 10.8778Z" fill="white"/>
<path d="M10.1214 17.0152C9.50938 15.5872 9.19737 13.7152 9.14337 11.9272C8.96337 12.7312 8.69338 15.0772 8.92738 16.9552C6.39538 16.0912 4.66138 14.6392 3.46138 12.8752C3.58138 9.89317 4.46338 8.24317 5.06338 6.70117C4.07938 7.72117 3.16138 9.58117 2.74737 11.6692C2.39337 10.9852 2.09938 10.2652 1.85938 9.52717C2.00938 12.8872 3.68938 16.3792 9.00538 18.2332C9.39538 17.7772 9.80938 17.3272 10.1214 17.0152Z" fill="white"/>
</svg>
