<svg width="29" height="29" viewBox="0 0 29 29" fill="none" xmlns="http://www.w3.org/2000/svg">
<path d="M14.097 25.0928H14.1404C20.0839 25.0928 24.8994 20.2893 24.8994 14.312C24.8994 8.33478 20.1056 3.53125 14.1404 3.53125H14.097C8.13176 3.53125 3.33789 8.33478 3.33789 14.312C3.33789 20.2893 8.15345 25.0928 14.097 25.0928Z" fill="#00FFFF"/>
<path d="M13.6517 23.5529H14.5861C21.0105 23.5529 24.5146 20.0904 24.5146 14.9083C24.5146 8.58742 19.3051 3.9165 14.1189 3.9165C8.93271 3.9165 3.72314 8.58742 3.72314 14.9083C3.72314 20.0904 7.22734 23.5529 13.6517 23.5529Z" fill="#00DFDF"/>
<path d="M14.1189 5.07129C9.53635 5.07129 4.49316 10.2336 4.49316 15.8807C4.49316 19.6373 6.79655 22.0125 10.288 22.0125C11.5488 22.0125 13.246 21.9883 14.1189 21.9883C14.9917 21.9883 16.6889 22.0125 17.9497 22.0125C21.4412 22.0125 23.7446 19.6373 23.7446 15.8807C23.7446 10.2336 18.7014 5.07129 14.1189 5.07129Z" fill="#00C0C0"/>
<path d="M8.62222 20.8575C9.97093 20.8575 11.6759 20.102 14.1188 20.102C16.5618 20.102 18.2667 20.8575 19.6154 20.8575C21.8802 20.8575 22.9745 18.717 22.9745 16.6268C22.9745 12.3962 18.3431 6.22644 14.2461 6.22644H13.9916C9.89459 6.22644 5.26318 12.3962 5.26318 16.6268C5.26318 18.717 6.35742 20.8575 8.62222 20.8575Z" fill="#00A0A0"/>
<path d="M21.0814 16.3932C19.9013 14.5227 18.5323 12.4976 17.1497 10.6296C16.045 9.13728 15.4906 8.36401 14.1315 8.36401C14.1272 8.36401 14.1229 8.36401 14.1186 8.36401C14.1143 8.36401 14.1103 8.36401 14.1057 8.36401C12.7467 8.36401 12.1923 9.13728 11.0875 10.6296C9.70498 12.4976 8.33588 14.5227 7.15588 16.3932C6.76827 17.0076 6.2648 18.276 7.2849 18.9103C7.55122 19.0754 7.79694 19.1448 8.03008 19.1448C8.61078 19.1448 9.11111 18.7156 9.64119 18.2769C11.3573 16.8571 12.65 15.7271 14.1057 15.7271C14.11 15.7271 14.1143 15.7271 14.1186 15.7271C14.1229 15.7271 14.1272 15.7271 14.1315 15.7271C15.5873 15.7271 16.88 16.8571 18.5961 18.2769C19.1261 18.7156 19.6264 19.1448 20.2071 19.1448C20.4403 19.1448 20.686 19.0754 20.9523 18.9103C21.9724 18.276 21.469 17.0076 21.0814 16.3932Z" fill="black"/>
</svg>
