<svg width="29" height="29" viewBox="0 0 29 29" fill="none" xmlns="http://www.w3.org/2000/svg">
<g clip-path="url(#clip0_4803_553)">
<path d="M11.8762 2.14172L12.4204 3.80134H14.1829L12.7558 4.8288L13.3015 6.48821L11.8762 5.46354L10.4491 6.48821L10.9955 4.8288L9.56982 3.80134H11.3325L11.8762 2.14172Z" fill="#9F8C50"/>
<path d="M16.7896 2.14172L17.3335 3.80134H19.0955L17.6699 4.8288L18.2164 6.48821L16.7896 5.46354L15.3639 6.48821L15.9096 4.8288L14.4829 3.80134H16.246L16.7896 2.14172Z" fill="#9F8C50"/>
<path fill-rule="evenodd" clip-rule="evenodd" d="M19.3002 18.766C19.2297 21.5252 18.0363 23.6864 15.4024 24.4998C14.7146 24.7086 13.972 24.6472 13.2303 24.4652C14.6895 22.6322 15.7146 19.7603 16.561 16.7489C15.0548 16.4899 14.1749 15.7711 13.7 14.8694C13.9473 14.6445 14.1902 14.4082 14.4242 14.1641C14.9193 13.6418 15.3752 13.0809 15.7446 12.506C18.2301 13.4346 19.3769 15.7969 19.3002 18.766ZM13.2327 12.696C13.2344 12.4994 13.247 12.3027 13.2693 12.1106C13.5556 12.0918 13.8521 12.0973 14.1493 12.1317C14.3828 12.1576 14.6088 12.1954 14.8269 12.2409C14.5625 12.689 14.2279 13.0631 13.8451 13.3912C13.6817 13.5304 13.5089 13.6615 13.3285 13.7863C13.2677 13.4747 13.2376 13.1572 13.232 12.8378C13.2312 12.7908 13.232 12.7434 13.2327 12.696ZM14.9896 9.22742C15.3521 9.33694 15.4259 9.85969 15.3017 11.0223C14.7353 10.9175 14.1476 10.8616 13.5454 10.8578C13.9023 9.80315 14.496 9.07831 14.9896 9.22742ZM10.1577 25.4239C10.0413 25.4456 9.92049 25.4575 9.79478 25.4575C9.56924 25.3999 9.03237 25.435 8.99063 24.7491C9.09318 24.379 9.47073 24.2731 9.87343 24.2561C10.163 24.2455 10.6573 24.4901 11.2713 24.8171C10.9675 25.1222 10.5972 25.3452 10.1577 25.4239ZM22.4078 18.6518C22.2695 15.2252 19.8153 12.3414 16.3808 11.2864C16.5896 10.7634 16.7098 10.2399 16.7073 9.73536C16.7037 8.52682 16.129 7.4129 15.1631 7.35754C13.3771 7.36237 12.5074 9.24512 12.2101 10.9488C6.88674 11.7164 4.77477 17.1694 7.34131 19.2983C9.41192 20.1832 11.0049 19.1272 11.1196 17.6481C9.82027 17.8051 9.38677 16.9997 9.3929 15.9683C9.40098 14.2288 10.5349 12.8811 12.0864 12.3486C12.088 12.5357 12.0965 12.7084 12.1124 12.864C12.1216 12.952 12.1322 13.0383 12.1398 13.1258C12.189 13.5769 12.2335 14.0052 12.2766 14.4185C11.764 14.6931 11.2178 14.9526 10.6622 15.2312L10.6784 16.9058C11.2096 16.6832 11.8118 16.3355 12.427 15.8989C12.4541 16.1835 12.483 16.4659 12.5074 16.7495C12.6732 18.5101 12.6525 20.0987 12.3268 22.4956C12.2596 22.984 12.0998 23.5328 11.8415 24.0244C10.822 23.6469 9.87343 23.2279 9.15118 23.2141C8.46911 23.1793 7.49545 23.5077 7.3551 24.4473C7.14787 25.8294 8.58384 26.5739 9.88236 26.4736C10.094 26.4575 10.3008 26.4243 10.5013 26.3766C11.1808 26.2132 11.7935 25.8721 12.3512 25.391C13.3922 25.9262 14.5884 26.4408 15.6695 26.4026C19.7176 26.2647 22.54 22.8652 22.4078 18.6518Z" fill="#2350A9"/>
</g>
<defs>
<clipPath id="clip0_4803_553">
<rect width="16.357" height="24.5356" fill="white" transform="translate(6.1543 2.04431)"/>
</clipPath>
</defs>
</svg>
