<svg width="30" height="29" viewBox="0 0 30 29" fill="none" xmlns="http://www.w3.org/2000/svg">
<path d="M8.32738 12.1666H4.78418V7.20703H5.79688V11.174H8.32738V12.1666ZM11.6353 11.7344C11.5578 11.8034 11.4743 11.8692 11.3849 11.9314C11.2977 11.9912 11.2061 12.0444 11.1096 12.0905C11.013 12.1342 10.9132 12.1689 10.8097 12.1942C10.7085 12.2219 10.604 12.2359 10.499 12.2358C10.2744 12.2373 10.0516 12.1962 9.84267 12.1146C9.64186 12.0365 9.45846 11.9202 9.30276 11.7725C9.14988 11.6225 9.02871 11.4415 8.93926 11.2294C8.8523 11.0151 8.80871 10.7752 8.80871 10.5101V8.46222H9.76863V10.5097C9.76863 10.6342 9.7874 10.7461 9.82495 10.8452C9.865 10.9421 9.91796 11.0239 9.98386 11.0907C10.0498 11.1577 10.1263 11.2082 10.2133 11.243C10.3027 11.2776 10.3978 11.295 10.499 11.295C10.5978 11.295 10.6908 11.2729 10.7778 11.229C10.866 11.1838 10.945 11.1229 11.0107 11.0493C11.0766 10.9755 11.1284 10.8926 11.1661 10.8003C11.2037 10.7057 11.2224 10.6088 11.2224 10.5097V8.46243H12.1859V12.1666H11.953L11.6353 11.7344ZM16.6198 12.1666H15.4411L14.6895 11.0322L13.9308 12.1666H12.7521L14.1318 10.2679L12.7521 8.44182H13.9308L14.6895 9.50348L15.4409 8.44182H16.6196L15.2363 10.2679L16.6198 12.1666Z" fill="#010C2C"/>
<path d="M6.28759 18.3384C6.49542 18.4243 6.71865 18.4678 6.94389 18.4662H7.67443V17.5256H6.94367C6.84565 17.5261 6.74851 17.5073 6.65797 17.4701C6.57134 17.4328 6.49238 17.38 6.42502 17.3145C6.35932 17.25 6.30739 17.175 6.26965 17.0898C6.23211 17.002 6.21336 16.9087 6.21336 16.8095V15.7098H7.67443V14.7691H6.21336V13.2888H5.25341V14.7691H4.78418V15.7098H5.25341V16.8097C5.25202 17.0307 5.29652 17.2495 5.38416 17.4528C5.4711 17.6499 5.5943 17.8292 5.74746 17.9819C5.90377 18.1326 6.08689 18.2534 6.28759 18.3384Z" fill="#010C2C"/>
<path d="M22.9679 18.9263V19.8772L23.4621 19.8842C23.719 19.886 23.9737 19.8353 24.2101 19.7354C24.4376 19.6399 24.6447 19.5026 24.8206 19.3309C24.9972 19.1599 25.1387 18.9567 25.2369 18.7325C25.3388 18.5012 25.3919 18.2517 25.3923 17.9994V14.7621H24.4218V16.8093C24.4218 16.9085 24.4031 17.0053 24.3655 17.1C24.3284 17.1911 24.2758 17.2753 24.2101 17.3489C24.1444 17.4226 24.0654 17.4835 23.9772 17.5286C23.8901 17.5725 23.7971 17.5946 23.6985 17.5946C23.5974 17.5946 23.502 17.5783 23.4125 17.546C23.3256 17.5138 23.249 17.4654 23.1831 17.4009C23.1172 17.3339 23.0644 17.2521 23.0244 17.1552C22.9867 17.0561 22.9679 16.9408 22.9679 16.8093V14.7619H22.0081V16.8097C22.0081 17.0748 22.0516 17.3147 22.1386 17.5291C22.2279 17.7412 22.3493 17.9221 22.5021 18.0722C22.6577 18.2199 22.8413 18.3361 23.0419 18.4143C23.251 18.4958 23.4739 18.537 23.6985 18.5355C23.8111 18.535 23.9226 18.5127 24.0265 18.4697C24.1372 18.4258 24.2453 18.3821 24.3513 18.3384C24.316 18.4236 24.2701 18.5021 24.2136 18.5734C24.1571 18.6472 24.0914 18.7107 24.0161 18.7637C23.9429 18.8168 23.862 18.8587 23.7762 18.8881C23.6891 18.9182 23.5985 18.9331 23.5044 18.9331L22.9679 18.9263Z" fill="#010C2C"/>
<path fill-rule="evenodd" clip-rule="evenodd" d="M12.0871 16.5814C12.0871 16.858 12.0366 17.1162 11.9352 17.3561C11.8387 17.5866 11.6986 17.7966 11.5223 17.9751C11.346 18.1495 11.1376 18.2892 10.9084 18.3867C10.6708 18.4868 10.415 18.5374 10.1568 18.5355C9.89857 18.537 9.64282 18.4863 9.40516 18.3867C9.17647 18.2881 8.96825 18.1486 8.79098 17.9751C8.6147 17.7966 8.47455 17.5866 8.37807 17.3561C8.27692 17.1162 8.22645 16.858 8.22645 16.5812C8.22645 16.3 8.27692 16.0395 8.37807 15.7996C8.47341 15.5686 8.6137 15.3583 8.79098 15.1807C8.967 15.0057 9.17555 14.866 9.40516 14.7691C9.64282 14.6694 9.89857 14.6188 10.1568 14.6203C10.4249 14.6203 10.6754 14.6677 10.9084 14.7621C11.1388 14.8511 11.3479 14.9866 11.5225 15.1599C11.6966 15.3305 11.8341 15.537 11.9354 15.779C12.0366 16.0187 12.0871 16.286 12.0871 16.5814ZM11.0389 16.1698C11.0908 16.292 11.1167 16.4291 11.1167 16.5814C11.1167 16.7312 11.0908 16.8685 11.0389 16.993C10.9897 17.1175 10.9213 17.2234 10.8343 17.3112C10.747 17.399 10.6426 17.4684 10.5273 17.5152C10.412 17.5635 10.2886 17.5878 10.1568 17.5878C10.025 17.5878 9.90023 17.5624 9.78262 17.5115C9.6675 17.4586 9.56635 17.3873 9.47917 17.2972C9.3945 17.2073 9.32736 17.1012 9.27814 16.9792C9.22872 16.8569 9.2039 16.7242 9.2039 16.5814C9.2039 16.4291 9.22872 16.292 9.27814 16.1698C9.32736 16.0453 9.3945 15.9392 9.47917 15.8516C9.56439 15.7629 9.66787 15.6933 9.78262 15.6475C9.90023 15.5991 10.025 15.575 10.1568 15.575C10.284 15.574 10.4101 15.5987 10.5273 15.6475C10.6435 15.6926 10.7482 15.7623 10.8343 15.8516C10.9237 15.9428 10.9933 16.0511 11.0389 16.1698Z" fill="#010C2C"/>
<path fill-rule="evenodd" clip-rule="evenodd" d="M16.4892 18.4662H16.2563L15.8821 17.9578C15.7905 18.0386 15.6929 18.1146 15.5894 18.1861C15.4875 18.2557 15.3801 18.3171 15.2681 18.3696C15.1553 18.4201 15.0389 18.4605 14.9189 18.4905C14.8012 18.5205 14.6803 18.5356 14.5589 18.5355C14.3011 18.537 14.0454 18.4876 13.8071 18.3902C13.5783 18.2937 13.3699 18.1552 13.1932 17.9821C13.0169 17.8036 12.8767 17.5934 12.7803 17.3629C12.6791 17.1232 12.6286 16.8627 12.6286 16.5814C12.6286 16.3023 12.6791 16.043 12.7803 15.8031C12.8761 15.5713 13.0163 15.36 13.1932 15.1807C13.3692 15.0058 13.5776 14.866 13.8071 14.7691C14.0449 14.6694 14.3007 14.6188 14.5589 14.6203C14.6436 14.6203 14.7305 14.6273 14.82 14.6411C14.9119 14.6549 15.0001 14.6782 15.0848 14.7103C15.1716 14.7402 15.2531 14.7804 15.3284 14.8313C15.4037 14.882 15.467 14.9443 15.5187 15.0181V13.2888H16.4892V18.4662ZM15.4412 16.2079C15.4927 16.3279 15.5187 16.4522 15.5187 16.5814C15.5187 16.711 15.4923 16.839 15.4412 16.9584C15.3917 17.0781 15.3236 17.1853 15.2365 17.2801C15.1487 17.3728 15.0446 17.4489 14.9293 17.5047C14.8143 17.5602 14.6906 17.5878 14.5589 17.5878C14.4299 17.5884 14.3022 17.5612 14.1848 17.5082C14.0695 17.4553 13.9684 17.3825 13.8814 17.2904C13.7041 17.0958 13.606 16.8432 13.6061 16.5814C13.6061 16.4245 13.6307 16.284 13.6801 16.1595C13.725 16.0422 13.7934 15.9351 13.8814 15.8448C13.9673 15.7578 14.0707 15.6894 14.1848 15.644C14.3024 15.5981 14.4272 15.575 14.5589 15.575C14.6877 15.5743 14.8145 15.604 14.9293 15.6615C15.0457 15.7158 15.15 15.7921 15.2365 15.8862C15.3244 15.9799 15.3938 16.089 15.4412 16.2079Z" fill="#010C2C"/>
<path fill-rule="evenodd" clip-rule="evenodd" d="M21.1031 18.4662H20.8702L20.4961 17.9578C20.4042 18.0386 20.3066 18.1146 20.2032 18.1861C20.1015 18.2557 19.9941 18.3171 19.8821 18.3696C19.769 18.4201 19.6527 18.4605 19.5328 18.4905C19.4152 18.5205 19.2943 18.5356 19.1729 18.5355C18.907 18.5355 18.6564 18.4916 18.4209 18.404C18.1926 18.3191 17.9839 18.1897 17.8071 18.0235C17.6329 17.8553 17.4952 17.6501 17.3941 17.4079C17.2931 17.1659 17.2424 16.8903 17.2424 16.5814C17.2424 16.293 17.2931 16.029 17.3941 15.7893C17.4952 15.5471 17.6329 15.3398 17.8071 15.1669C17.9828 14.9943 18.1915 14.858 18.4209 14.7656C18.6593 14.6682 18.9149 14.6187 19.1729 14.6203C19.2951 14.6203 19.4163 14.6353 19.5363 14.6654C19.6566 14.6955 19.7736 14.7372 19.8856 14.7899C19.9984 14.8429 20.1056 14.9051 20.2069 14.9766C20.3103 15.0481 20.4068 15.1252 20.4961 15.2083L20.8702 14.7691H21.1031V18.4662ZM20.055 16.2079C20.1067 16.3279 20.1327 16.4522 20.1327 16.5814C20.1324 16.711 20.106 16.839 20.055 16.9584C20.0056 17.0781 19.9373 17.1853 19.8504 17.2801C19.7627 17.3728 19.6586 17.4489 19.5433 17.5047C19.4281 17.5602 19.3045 17.5878 19.1729 17.5878C19.0452 17.5885 18.9184 17.5662 18.7988 17.522C18.6833 17.4781 18.5822 17.4136 18.4954 17.3283C18.4107 17.2432 18.3434 17.1383 18.2941 17.0136C18.2446 16.8868 18.2199 16.7428 18.2199 16.5812C18.2199 16.42 18.2446 16.277 18.2941 16.1525C18.3382 16.0339 18.4067 15.9257 18.4954 15.8344C18.5816 15.7496 18.6848 15.6835 18.7988 15.6407C18.9164 15.5968 19.0411 15.575 19.1729 15.575C19.3015 15.5743 19.4285 15.604 19.5433 15.6615C19.6594 15.7158 19.764 15.7921 19.8504 15.8862C19.9382 15.9799 20.0076 16.089 20.055 16.2079Z" fill="#010C2C"/>
</svg>
