<svg width="29" height="29" viewBox="0 0 29 29" fill="none" xmlns="http://www.w3.org/2000/svg">
<rect x="3.25781" y="3.43323" width="21.7576" height="21.7576" rx="1.4667" fill="#FFDD2D"/>
<path d="M8.17871 8.35449H20.094V14.347C20.094 15.8832 19.2745 17.3028 17.9442 18.071L14.1364 20.2698L10.3286 18.071C8.99822 17.3028 8.17871 15.8832 8.17871 14.347V8.35449Z" fill="white"/>
<path fill-rule="evenodd" clip-rule="evenodd" d="M11.4487 11.5082V13.372C11.7036 13.0842 12.167 12.8894 12.6968 12.8894H13.2726V15.056C13.2726 15.6325 13.116 16.137 12.8836 16.4145H15.3881C15.1562 16.1367 15 15.6328 15 15.0571V12.8894H15.5758C16.1056 12.8894 16.569 13.0842 16.8239 13.372V11.5082H11.4487Z" fill="#333333"/>
</svg>
